<svg xmlns="http://www.w3.org/2000/svg" viewBox="0 0 96 96" fill="none" role="img" aria-label="Tap to switch">
  <circle cx="50" cy="31" r="22" fill="#dff5ff" stroke="#56616a" stroke-width="4"/>
  <path d="M50 17v29" stroke="#56616a" stroke-width="5" stroke-linecap="round"/>
  <path d="M31 67c-7-6-11-9-13-7-3 3 2 11 12 21 6 6 16 9 27 9h12c6 0 10-4 10-10V56c0-4-3-7-7-7-2 0-4 1-5 3-1-4-4-6-8-6-3 0-5 1-6 4-1-4-4-6-8-6-2 0-4 1-5 3V31c0-5-3-8-7-8s-7 3-7 8v38l-5-2z" fill="#fff" stroke="#56616a" stroke-width="4" stroke-linejoin="round"/>
  <path d="M64 20l11-11m-4 21h16M25 20L14 9m4 21H2" stroke="#7ec8e3" stroke-width="4" stroke-linecap="round"/>
</svg>
